<svg width="70" height="70" viewBox="0 0 70 70" fill="none" xmlns="http://www.w3.org/2000/svg">
<path d="M61.8043 44.4231C63.3703 44.4304 64.9051 43.9174 66.2256 42.9455C67.5461 41.9736 68.5965 40.5837 69.2516 38.9416C69.9066 37.2995 70.1387 35.4746 69.92 33.6845C69.7014 31.8943 69.0413 30.2146 68.0184 28.8456C66.9956 27.4766 65.6532 26.4762 64.1514 25.9637C62.6496 25.4511 61.0518 25.4481 59.5486 25.9549C58.0453 26.4618 56.7001 27.4571 55.6734 28.8222C54.6467 30.1873 53.9818 31.8646 53.7581 33.6538H41.8637C41.5713 31.657 40.6397 29.8598 39.2536 28.6184C37.8674 27.377 36.1279 26.782 34.3797 26.9514C32.6315 27.1207 31.0022 28.0421 29.8147 29.5328C28.6272 31.0235 27.9681 32.9748 27.9681 35C27.9681 37.0252 28.6272 38.9765 29.8147 40.4672C31.0022 41.9579 32.6315 42.8793 34.3797 43.0486C36.1279 43.218 37.8674 42.623 39.2536 41.3816C40.6397 40.1403 41.5713 38.343 41.8637 36.3462H53.7581C53.8973 37.6875 54.2958 38.9757 54.9242 40.1154L39.4148 55.7308C38.1873 54.4976 36.6107 53.827 34.9836 53.8462C33.4762 53.8906 32.0145 54.453 30.7855 55.4615L18.8911 42.2692C20.2389 40.1632 20.9737 37.6183 20.9901 35C21.0154 32.4368 20.3198 29.9334 19.0077 27.8654L29.736 16.6923C31.2173 18.0882 33.0714 18.8493 34.9836 18.8462C36.598 18.8462 38.1762 18.2935 39.5186 17.2581C40.861 16.2227 41.9072 14.751 42.525 13.0291C43.1428 11.3073 43.3045 9.41263 42.9895 7.58473C42.6746 5.75683 41.8971 4.0778 40.7555 2.75996C39.614 1.44212 38.1595 0.544657 36.576 0.181066C34.9926 -0.182525 33.3513 0.00408286 31.8598 0.717293C30.3682 1.4305 29.0934 2.63828 28.1964 4.1879C27.2995 5.73752 26.8207 7.55937 26.8207 9.42308C26.803 11.2985 27.2921 13.1336 28.2201 14.6731L17.4918 25.9808C15.5633 24.0009 13.0759 22.9002 10.4951 22.8846C7.7116 22.8846 5.04214 24.1611 3.07393 26.4331C1.10573 28.7052 0 31.7868 0 35C0 38.2132 1.10573 41.2948 3.07393 43.5669C5.04214 45.8389 7.7116 47.1154 10.4951 47.1154C12.9642 47.0996 15.353 46.1012 17.2586 44.2885L29.153 57.3462C28.4154 58.7233 28.0126 60.3043 27.9868 61.9231C27.9868 64.0652 28.724 66.1196 30.0361 67.6343C31.3483 69.149 33.1279 70 34.9836 70C36.8392 70 38.6188 69.149 39.931 67.6343C41.2431 66.1196 41.9803 64.0652 41.9803 61.9231C41.9928 60.4433 41.6278 58.992 40.9308 57.75L56.4401 42.1346C57.2388 42.8942 58.1465 43.4865 59.1222 43.8846L57.0232 56.5385C55.8753 56.565 54.7597 56.9821 53.8163 57.7377C52.8729 58.4932 52.1438 59.5534 51.7203 60.7854C51.2968 62.0174 51.1979 63.3663 51.4358 64.6629C51.6738 65.9596 52.2381 67.1462 53.058 68.0741C53.8778 69.002 54.9168 69.6298 56.0445 69.8788C57.1723 70.1278 58.3386 69.9869 59.3972 69.4737C60.4558 68.9606 61.3596 68.098 61.9953 66.9943C62.631 65.8905 62.9702 64.5947 62.9704 63.2692C62.9804 61.9363 62.6404 60.6311 61.995 59.5257C61.3497 58.4203 60.4294 57.5665 59.3554 57.0769L61.4544 44.4231H61.8043ZM34.9836 40.3846C34.061 40.3846 33.1592 40.0688 32.3921 39.4771C31.625 38.8855 31.0272 38.0445 30.6741 37.0606C30.3211 36.0767 30.2287 34.994 30.4087 33.9495C30.5887 32.905 31.0329 31.9456 31.6853 31.1925C32.3376 30.4395 33.1687 29.9266 34.0736 29.7189C34.9784 29.5111 35.9163 29.6177 36.7686 30.0253C37.6209 30.4328 38.3494 31.123 38.8619 32.0085C39.3745 32.894 39.648 33.935 39.648 35C39.648 36.4281 39.1566 37.7977 38.2818 38.8075C37.4071 39.8173 36.2207 40.3846 34.9836 40.3846ZM60.6382 63.2692C60.6382 64.068 60.433 64.8488 60.0486 65.5129C59.6642 66.177 59.1178 66.6946 58.4786 67.0003C57.8393 67.3059 57.1359 67.3859 56.4573 67.2301C55.7787 67.0743 55.1554 66.6896 54.6661 66.1249C54.1768 65.5601 53.8437 64.8405 53.7087 64.0571C53.5737 63.2737 53.643 62.4617 53.9077 61.7238C54.1725 60.9858 54.6209 60.3551 55.1962 59.9114C55.7715 59.4676 56.4479 59.2308 57.1398 59.2308C57.6036 59.212 58.0658 59.3036 58.4976 59.4999C58.9294 59.6962 59.3216 59.993 59.6498 60.3718C59.9779 60.7506 60.235 61.2033 60.4051 61.7018C60.5751 62.2003 60.6545 62.7338 60.6382 63.2692ZM34.9836 2.69231C36.1367 2.69231 37.264 3.08707 38.2229 3.82665C39.1817 4.56624 39.929 5.61744 40.3703 6.84733C40.8116 8.07721 40.9271 9.43055 40.7021 10.7362C40.4771 12.0418 39.9218 13.2411 39.1064 14.1825C38.291 15.1238 37.2521 15.7648 36.121 16.0245C34.99 16.2842 33.8177 16.1509 32.7523 15.6415C31.6869 15.1321 30.7763 14.2694 30.1356 13.1625C29.4949 12.0556 29.153 10.7543 29.153 9.42308C29.153 7.63797 29.7673 5.92597 30.8607 4.66371C31.9542 3.40144 33.4372 2.69231 34.9836 2.69231ZM10.4951 44.4231C8.88061 44.4231 7.30241 43.8704 5.96004 42.835C4.61767 41.7996 3.57142 40.3279 2.9536 38.6061C2.33577 36.8842 2.17412 34.9895 2.48908 33.1617C2.80405 31.3338 3.58148 29.6547 4.72307 28.3369C5.86467 27.019 7.31914 26.1216 8.90258 25.758C10.486 25.3944 12.1273 25.581 13.6188 26.2942C15.1104 27.0074 16.3853 28.2152 17.2822 29.7648C18.1792 31.3144 18.6579 33.1363 18.6579 35C18.6579 37.4992 17.7979 39.896 16.2671 41.6631C14.7362 43.4303 12.66 44.4231 10.4951 44.4231ZM34.9836 67.3077C34.061 67.3077 33.1592 66.9919 32.3921 66.4002C31.625 65.8086 31.0272 64.9676 30.6741 63.9837C30.3211 62.9998 30.2287 61.9171 30.4087 60.8726C30.5887 59.8281 31.0329 58.8686 31.6853 58.1156C32.3376 57.3625 33.1687 56.8497 34.0736 56.6419C34.9784 56.4342 35.9163 56.5408 36.7686 56.9483C37.6209 57.3559 38.3494 58.046 38.8619 58.9315C39.3745 59.817 39.648 60.8581 39.648 61.9231C39.648 63.3512 39.1566 64.7208 38.2818 65.7306C37.4071 66.7404 36.2207 67.3077 34.9836 67.3077ZM55.9737 35C55.9737 33.6688 56.3156 32.3675 56.9563 31.2606C57.597 30.1537 58.5076 29.291 59.573 28.7816C60.6384 28.2721 61.8107 28.1389 62.9418 28.3986C64.0728 28.6583 65.1117 29.2993 65.9271 30.2406C66.7426 31.1819 67.2979 32.3813 67.5228 33.6869C67.7478 34.9925 67.6323 36.3459 67.191 37.5758C66.7497 38.8056 66.0024 39.8568 65.0436 40.5964C64.0847 41.336 62.9575 41.7308 61.8043 41.7308C60.2579 41.7308 58.7749 41.0216 57.6814 39.7594C56.588 38.4971 55.9737 36.7851 55.9737 35Z" fill="#8A78EC"/>
</svg>
